<svg xmlns="http://www.w3.org/2000/svg" viewBox="0 0 1000 525" width="1000" height="525" role="img" aria-labelledby="title desc">
  <title id="title">失智友善社區活動設計首圖</title>
  <desc id="desc">長者在社區活動空間中參與音樂與桌遊互動，由引導者陪伴，呈現溫暖、安全且友善的活動設計。</desc>
  <defs>
    <linearGradient id="bg" x1="0" y1="0" x2="1" y2="1"><stop offset="0" stop-color="#f6e0c7"/><stop offset=".48" stop-color="#fff7e9"/><stop offset="1" stop-color="#d6ebdf"/></linearGradient>
    <linearGradient id="wood" x1="0" y1="0" x2="1" y2="1"><stop offset="0" stop-color="#c9844f"/><stop offset="1" stop-color="#e9ba76"/></linearGradient>
    <radialGradient id="skinA" cx="45%" cy="35%" r="70%"><stop offset="0" stop-color="#ffe0bc"/><stop offset="1" stop-color="#d4966d"/></radialGradient>
    <radialGradient id="skinB" cx="45%" cy="35%" r="70%"><stop offset="0" stop-color="#ffd5a9"/><stop offset="1" stop-color="#c27f5d"/></radialGradient>
    <filter id="shadow" x="-20%" y="-20%" width="140%" height="140%"><feDropShadow dx="0" dy="12" stdDeviation="14" flood-color="#6b4a2b" flood-opacity=".18"/></filter>
    <style>.eye{fill:#3d2920}.smile{stroke:#704330;stroke-width:3;stroke-linecap:round;fill:none}.card{fill:#fff8ed;stroke:#dbc4a5;stroke-width:2}.soft{filter:url(#shadow)}</style>
  </defs>
  <rect width="1000" height="525" fill="url(#bg)"/>
  <circle cx="820" cy="80" r="165" fill="#fff2bd" opacity=".45"/>
  <rect x="680" y="36" width="255" height="190" rx="16" fill="#fff" opacity=".56"/>
  <rect x="704" y="56" width="94" height="152" rx="10" fill="#c9e6dc" opacity=".58"/>
  <rect x="814" y="56" width="94" height="152" rx="10" fill="#c9e6dc" opacity=".5"/>
  <g opacity=".5"><circle cx="742" cy="145" r="42" fill="#72ad72"/><circle cx="842" cy="130" r="60" fill="#88bf7c"/><circle cx="902" cy="154" r="38" fill="#72ad72"/></g>
  <rect x="55" y="90" width="170" height="108" rx="12" fill="#f8ecd9" opacity=".88"/>
  <rect x="80" y="110" width="120" height="70" rx="8" fill="#c5dfe0"/>
  <circle cx="105" cy="132" r="18" fill="#edb462"/><path d="M80 180c34-48 76-46 120 0z" fill="#70a9a8" opacity=".8"/>
  <g transform="translate(55 238)" opacity=".7"><rect x="0" y="66" width="230" height="48" rx="22" fill="#84aba1"/><rect x="24" y="0" width="166" height="88" rx="18" fill="#92b8af"/><circle cx="42" cy="-14" r="34" fill="#70aa70"/><circle cx="83" cy="-28" r="40" fill="#8cbc7b"/><circle cx="128" cy="-5" r="32" fill="#70aa70"/></g>
  <g transform="translate(860 248)" opacity=".75"><rect x="22" y="114" width="64" height="68" rx="12" fill="#b88353"/><ellipse cx="54" cy="114" rx="45" ry="15" fill="#c99763"/><ellipse cx="25" cy="48" rx="18" ry="62" transform="rotate(-28 25 48)" fill="#6aa76a"/><ellipse cx="74" cy="52" rx="17" ry="58" transform="rotate(27 74 52)" fill="#8cbc7b"/><ellipse cx="48" cy="48" rx="17" ry="60" fill="#6aa76a"/></g>
  <ellipse cx="500" cy="405" rx="430" ry="99" fill="#6f4f3a" opacity=".12"/>
  <ellipse cx="500" cy="382" rx="420" ry="104" fill="url(#wood)" class="soft"/>
  <ellipse cx="500" cy="373" rx="420" ry="92" fill="#e6b46f"/>
  <path d="M115 371c205 55 565 57 770-7" stroke="#c58b52" stroke-width="4" opacity=".28" fill="none"/>
  <path d="M150 410c188 34 500 37 700-7" stroke="#c58b52" stroke-width="3" opacity=".22" fill="none"/>
  <g transform="translate(90 188)" class="soft"><ellipse cx="90" cy="58" rx="51" ry="47" fill="#d8d5cd"/><circle cx="98" cy="78" r="44" fill="url(#skinA)"/><path d="M54 69c6-40 49-63 88-42 16 18 8 42-2 58-24-21-52-26-86-16z" fill="#ddd9d1"/><circle cx="84" cy="77" r="4" class="eye"/><circle cx="119" cy="77" r="4" class="eye"/><path d="M86 101c17 12 35 11 49-3" class="smile"/><path d="M40 162c14-52 104-66 145-5l35 94H8z" fill="#9ed3d1"/></g>
  <g transform="translate(255 158)" class="soft"><ellipse cx="85" cy="58" rx="48" ry="43" fill="#e8e4da"/><circle cx="88" cy="73" r="42" fill="url(#skinB)"/><path d="M50 62c10-42 55-58 91-32-6 21-28 31-49 31-15 0-26 1-42 1z" fill="#e6e2d8"/><circle cx="74" cy="72" r="4" class="eye"/><circle cx="108" cy="72" r="4" class="eye"/><path d="M75 96c17 11 34 10 46-3" class="smile"/><rect x="63" y="70" width="54" height="18" rx="8" fill="none" stroke="#5d4b43" stroke-width="2" opacity=".65"/><path d="M35 160c20-57 108-58 143-1l46 116H-4z" fill="#80b8a5"/></g>
  <g transform="translate(427 142)" class="soft"><path d="M46 64c-4-35 17-70 57-73 43 3 66 39 58 75-17-26-89-29-115-2z" fill="#3b241c"/><circle cx="101" cy="80" r="43" fill="#f1b88c"/><path d="M61 67c9-34 70-43 89-2-32-8-61-7-89 2z" fill="#2d1b16"/><circle cx="85" cy="78" r="4" class="eye"/><circle cx="118" cy="78" r="4" class="eye"/><path d="M84 100c18 12 36 10 50-5" class="smile"/><path d="M38 168c22-64 113-67 145-2l35 104H0z" fill="#8ebee4"/><path d="M42 214c-38 17-58 43-57 79" stroke="#f1b88c" stroke-width="18" stroke-linecap="round"/><path d="M180 208c40 18 64 44 64 82" stroke="#f1b88c" stroke-width="18" stroke-linecap="round"/></g>
  <g transform="translate(616 160)" class="soft"><ellipse cx="90" cy="58" rx="50" ry="45" fill="#efece4"/><circle cx="91" cy="76" r="42" fill="url(#skinA)"/><path d="M52 62c7-44 60-60 95-28-8 19-32 31-58 29-14-1-26-1-37-1z" fill="#f2eee7"/><circle cx="77" cy="75" r="4" class="eye"/><circle cx="110" cy="75" r="4" class="eye"/><path d="M76 99c17 12 34 11 47-2" class="smile"/><path d="M40 162c20-58 107-61 143-4l35 107H0z" fill="#f5ddad"/><path d="M77 153h42" stroke="#fff1d5" stroke-width="6" stroke-linecap="round" opacity=".9"/></g>
  <g transform="translate(777 178)" class="soft"><path d="M50 58c2-38 37-60 76-48 26 9 43 32 39 60-30-17-71-28-115-12z" fill="#4c433d"/><circle cx="101" cy="76" r="42" fill="url(#skinB)"/><path d="M51 61c19-28 69-38 108-1-38-2-75 0-108 1z" fill="#4a403a"/><circle cx="86" cy="75" r="4" class="eye"/><circle cx="119" cy="75" r="4" class="eye"/><path d="M86 98c16 10 33 9 46-3" class="smile"/><path d="M42 161c22-55 109-58 145 0l43 116H3z" fill="#d8d4cf"/></g>
  <g transform="translate(340 282) rotate(9)" class="soft"><circle cx="0" cy="0" r="49" fill="#b47a3d"/><circle cx="0" cy="0" r="39" fill="#f3d8a5"/><g fill="#e7e3d4"><circle cx="-43" cy="-3" r="7"/><circle cx="-30" cy="-31" r="7"/><circle cx="4" cy="-44" r="7"/><circle cx="34" cy="-25" r="7"/><circle cx="43" cy="8" r="7"/></g></g>
  <g transform="translate(716 278) rotate(-10)" class="soft"><rect x="-10" y="38" width="20" height="70" rx="9" fill="#b4793a"/><ellipse cx="0" cy="23" rx="26" ry="37" fill="#6ab36d"/><path d="M-19 14c15 9 31 9 45 0" stroke="#e75b48" stroke-width="14" fill="none"/><path d="M-16 31c12 7 25 7 36 0" stroke="#f0c64a" stroke-width="10" fill="none"/></g>
  <g transform="translate(165 381) rotate(-8)" class="soft"><path d="M0 0h50v28h27v47H51v28H0V76h-28V29H0z" fill="#4aa6d8"/><path d="M56 22h52v28h28v48H85v28H35V99H8V50h48z" fill="#f0c24e"/><path d="M117 13h54v28h29v49h-53v29H96V90H68V41h49z" fill="#ed8c3f"/><path d="M59 72h50v28h27v47H85v27H35v-47H8V99h51z" fill="#7fc46e" opacity=".9"/></g>
  <g transform="translate(430 315)" class="soft"><rect class="card" x="0" y="0" width="72" height="58" rx="10"/><circle cx="36" cy="29" r="10" fill="#ef6f61"/><rect class="card" x="82" y="-4" width="72" height="58" rx="10"/><ellipse cx="118" cy="25" rx="20" ry="10" fill="#70a65f" transform="rotate(-22 118 25)"/><rect class="card" x="164" y="2" width="72" height="58" rx="10"/><path d="M198 14c24 16 21 36-5 37-17-12-18-25 5-37z" fill="#f1bd45"/><rect class="card" x="5" y="68" width="72" height="58" rx="10"/><path d="M39 79c22 12 19 34 0 41-23-14-21-35 0-41z" fill="#71a95d"/><rect class="card" x="87" y="66" width="72" height="58" rx="10"/><circle cx="123" cy="96" r="16" fill="#f28c2e"/><rect class="card" x="169" y="70" width="72" height="58" rx="10"/><path d="M189 104c10-19 34-19 44 0-14 9-30 9-44 0z" fill="#5bb0d5"/></g>
  <g transform="translate(744 339)" class="soft"><rect x="0" y="0" width="164" height="102" rx="16" fill="#e5d0a9"/><rect x="15" y="14" width="134" height="74" rx="12" fill="#fff5e4"/><circle cx="44" cy="42" r="16" fill="#4aa6d8"/><circle cx="92" cy="40" r="16" fill="#79aa6a"/><circle cx="120" cy="67" r="16" fill="#e9c53f"/><circle cx="72" cy="69" r="16" fill="#d95145"/><circle cx="45" cy="67" r="8" fill="#dfcfb4"/><circle cx="95" cy="67" r="8" fill="#dfcfb4"/></g>
  <g transform="translate(620 390) rotate(-6)" class="soft"><rect x="0" y="0" width="118" height="76" rx="10" fill="#78afd0"/><path d="M16 18h86M16 35h86M16 52h86" stroke="#d8eff9" stroke-width="3" stroke-dasharray="2 7"/></g>
</svg>