<svg xmlns="http://www.w3.org/2000/svg" viewBox="0 0 960 600" width="960" height="600" font-family="'Noto Sans CJK TC','Noto Sans TC',sans-serif">
  <rect x="0" y="0" width="960" height="600" fill="#FFFFFF"/>
  <text x="480" y="70" text-anchor="middle" font-size="34" font-weight="700" fill="#1B5E4B">亂數品質三層檢查機制</text>
  <line x1="360" y1="92" x2="600" y2="92" stroke="#C9A227" stroke-width="4"/>

  <g>
    <rect x="60" y="150" width="250" height="340" rx="16" fill="#F2F7F5" stroke="#2E8B6F" stroke-width="2"/>
    <circle cx="185" cy="250" r="60" fill="#1B5E4B"/>
    <path d="M155 250 L177 274 L217 224" fill="none" stroke="#FFFFFF" stroke-width="10" stroke-linecap="round" stroke-linejoin="round"/>
    <rect x="90" y="340" width="190" height="4" fill="#C9A227"/>
    <text x="185" y="385" text-anchor="middle" font-size="24" font-weight="700" fill="#1F2A28">開機自測</text>
    <text x="185" y="420" text-anchor="middle" font-size="16" fill="#6B7B77">系統啟動時</text>
    <text x="185" y="444" text-anchor="middle" font-size="16" fill="#6B7B77">立即驗證運作正常</text>
  </g>

  <g>
    <rect x="355" y="150" width="250" height="340" rx="16" fill="#F2F7F5" stroke="#2E8B6F" stroke-width="2"/>
    <circle cx="480" cy="250" r="60" fill="#1B5E4B"/>
    <path d="M450 250 L472 274 L512 224" fill="none" stroke="#FFFFFF" stroke-width="10" stroke-linecap="round" stroke-linejoin="round"/>
    <rect x="385" y="340" width="190" height="4" fill="#C9A227"/>
    <text x="480" y="385" text-anchor="middle" font-size="24" font-weight="700" fill="#1F2A28">熵源健康檢查</text>
    <text x="480" y="420" text-anchor="middle" font-size="16" fill="#6B7B77">持續監測隨機性</text>
    <text x="480" y="444" text-anchor="middle" font-size="16" fill="#6B7B77">來源穩定可靠</text>
  </g>

  <g>
    <rect x="650" y="150" width="250" height="340" rx="16" fill="#F2F7F5" stroke="#2E8B6F" stroke-width="2"/>
    <circle cx="775" cy="250" r="60" fill="#1B5E4B"/>
    <path d="M745 250 L767 274 L807 224" fill="none" stroke="#FFFFFF" stroke-width="10" stroke-linecap="round" stroke-linejoin="round"/>
    <rect x="680" y="340" width="190" height="4" fill="#C9A227"/>
    <text x="775" y="385" text-anchor="middle" font-size="24" font-weight="700" fill="#1F2A28">建置組態</text>
    <text x="775" y="413" text-anchor="middle" font-size="24" font-weight="700" fill="#1F2A28">安全審查</text>
    <text x="775" y="448" text-anchor="middle" font-size="16" fill="#6B7B77">確保設定符合</text>
    <text x="775" y="472" text-anchor="middle" font-size="16" fill="#6B7B77">安全規範</text>
  </g>

  <text x="480" y="560" text-anchor="middle" font-size="15" fill="#6B7B77">三項機制各自獨立運作，共同構成完整防護</text>
<text x="940.8" y="585" text-anchor="end" font-family="sans-serif" font-size="17" fill="#6B7B77" fill-opacity="0.45" font-weight="600">appi.news</text></svg>